HIERARCHY
ROOT Hips
{
 OFFSET 0.000000 0.000000 0.000000
 CHANNELS 6 Xposition Yposition Zposition Yrotation Xrotation Zrotation
 JOINT Chest
 {
  OFFSET 0.000000 9.585900 0.002600
  CHANNELS 3 Yrotation Xrotation Zrotation
  JOINT Chest2
  {
   OFFSET 0.000000 9.601200 -0.005300
   CHANNELS 3 Yrotation Xrotation Zrotation
   JOINT Chest3
   {
    OFFSET 0.000000 9.561800 0.000000
    CHANNELS 3 Yrotation Xrotation Zrotation
    JOINT Chest4
    {
     OFFSET 0.000000 9.552100 0.000000
     CHANNELS 3 Yrotation Xrotation Zrotation
     JOINT Neck
     {
      OFFSET 0.000000 14.453000 0.000000
      CHANNELS 3 Yrotation Xrotation Zrotation
      JOINT Head
      {
       OFFSET 0.000000 8.936500 -0.011300
       CHANNELS 3 Yrotation Xrotation Zrotation
       End Site
       {
        OFFSET 0.000000 17.073600 -0.006000
       }
      }
     }
     JOINT RightCollar
     {
      OFFSET -2.921100 9.558500 0.000000
      CHANNELS 3 Yrotation Xrotation Zrotation
      JOINT RightShoulder
      {
       OFFSET -13.519700 0.000000 0.000000
       CHANNELS 3 Yrotation Xrotation Zrotation
       JOINT RightElbow
       {
        OFFSET 0.000000 -29.696600 0.000000
        CHANNELS 3 Yrotation Xrotation Zrotation
        JOINT RightWrist
        {
         OFFSET 0.000000 -24.004700 0.000000
         CHANNELS 3 Yrotation Xrotation Zrotation
         End Site
         {
          OFFSET 0.000000 -17.728500 0.000000
         }
        }
       }
      }
     }
     JOINT LeftCollar
     {
      OFFSET 2.921100 9.558500 0.000000
      CHANNELS 3 Yrotation Xrotation Zrotation
      JOINT LeftShoulder
      {
       OFFSET 13.519700 0.000000 0.000000
       CHANNELS 3 Yrotation Xrotation Zrotation
       JOINT LeftElbow
       {
        OFFSET 0.000000 -29.696600 0.000000
        CHANNELS 3 Yrotation Xrotation Zrotation
        JOINT LeftWrist
        {
         OFFSET 0.000000 -24.004700 0.000000
         CHANNELS 3 Yrotation Xrotation Zrotation
         End Site
         {
          OFFSET 0.000000 -17.728500 0.000000
         }
        }
       }
      }
     }
    }
   }
  }
 }
 JOINT RightHip
 {
  OFFSET -7.771700 -0.012900 -0.001300
  CHANNELS 3 Yrotation Xrotation Zrotation
  JOINT RightKnee
  {
   OFFSET 0.000000 -40.869800 0.001200
   CHANNELS 3 Yrotation Xrotation Zrotation
   JOINT RightAnkle
   {
    OFFSET 0.000000 -39.717900 0.002100
    CHANNELS 3 Yrotation Xrotation Zrotation
    JOINT RightToe
    {
     OFFSET 0.000000 -4.965400 11.033500
     CHANNELS 3 Yrotation Xrotation Zrotation
     End Site
     {
      OFFSET 0.000000 -1.423100 5.872300
     }
    }
   }
  }
 }
 JOINT LeftHip
 {
  OFFSET 7.771700 -0.012900 -0.001300
  CHANNELS 3 Yrotation Xrotation Zrotation
  JOINT LeftKnee
  {
   OFFSET 0.000000 -40.869800 0.001200
   CHANNELS 3 Yrotation Xrotation Zrotation
   JOINT LeftAnkle
   {
    OFFSET 0.000000 -39.717900 0.002100
    CHANNELS 3 Yrotation Xrotation Zrotation
    JOINT LeftToe
    {
     OFFSET 0.000000 -4.965400 11.033500
     CHANNELS 3 Yrotation Xrotation Zrotation
     End Site
     {
      OFFSET 0.000000 -1.423100 5.872300
     }
    }
   }
  }
 }
}
MOTION
Frames: 12
Frame Time: 0.008333
-54.348054 48.767943 35.520026 171.646811 -35.485634 -5.415963 5.958371 18.296263 4.762359 0.621755 2.246496 0.471025 1.049897 3.650060 0.786238 5.009891 15.810598 3.995382 -0.689334 17.576306 3.183082 -2.334169 -3.191040 6.114109 0.510668 0.630811 -4.429624 6.341410 -2.537715 0.103855 88.404525 -76.452502 -96.962490 0.945295 0.932303 -11.023231 -8.450816 0.890597 -1.409790 1.858257 0.637361 -0.361318 -123.886247 -76.427802 122.021345 12.794920 -9.759690 4.691935 11.315561 -53.474421 6.019855 -10.499371 81.321065 1.118065 -8.098633 7.362352 -0.516334 0.014181 -0.817878 0.090049 -13.490538 -49.582833 17.750613 -171.587477 87.161564 -177.080363 1.059609 -7.958924 1.308593 0.001215 0.038809 0.007761
-54.352538 48.770320 35.535274 171.635174 -35.501201 -5.415839 5.961459 18.323130 4.765736 0.630815 2.239945 0.473002 1.047238 3.711919 0.799074 5.028341 15.860882 4.017905 -0.709841 17.509256 3.145514 -2.346491 -3.237879 6.064334 0.515268 0.549928 -4.451639 6.318712 -2.541736 0.038059 88.561173 -76.462764 -97.125039 0.966467 0.912082 -10.972200 -8.475501 0.819261 -1.417540 1.864719 0.603323 -0.357308 -123.840224 -76.406963 121.959012 12.788324 -9.756022 4.723857 11.275084 -53.300043 6.059938 -10.333557 81.637381 1.254502 -8.226698 7.058419 -0.403695 0.014191 -0.791639 0.018150 -13.454457 -49.564953 17.748809 -171.528850 87.188629 -177.023256 1.046251 -7.944292 1.318387 0.000560 0.039678 0.014947
-54.356603 48.774250 35.550310 171.623265 -35.515578 -5.415771 5.958964 18.365385 4.772847 0.641613 2.234671 0.472686 1.052754 3.727936 0.804492 5.039548 15.905580 4.038439 -0.725175 17.480290 3.121700 -2.382708 -3.236872 6.000851 0.530456 0.508991 -4.462756 6.289740 -2.536286 -0.054136 88.750351 -76.519395 -97.317696 0.995434 0.877425 -10.939272 -8.500402 0.777442 -1.424588 1.794710 0.571213 -0.300910 -123.780131 -76.423761 121.954216 12.797194 -9.787064 4.793758 11.208946 -53.108174 6.119004 -10.232891 81.929455 1.314556 -8.341290 6.743062 -0.285216 0.014049 -0.756016 -0.047516 -13.393022 -49.550085 17.736613 -171.361783 87.214816 -176.847196 1.024798 -7.930918 1.335411 -0.000672 0.037770 0.016757
-54.359023 48.780849 35.563734 171.604983 -35.540229 -5.419064 5.971768 18.405213 4.790559 0.638524 2.268857 0.481457 1.065960 3.686557 0.793093 5.048055 15.961372 4.065834 -0.737816 17.471509 3.106433 -2.401464 -3.253176 5.977250 0.564460 0.516577 -4.448033 6.244794 -2.584695 -0.126501 88.848593 -76.495064 -97.430007 0.986785 0.864500 -10.902604 -8.525122 0.748885 -1.434155 1.767404 0.528053 -0.281766 -123.641027 -76.427401 121.827262 12.801673 -9.822582 4.860947 11.111850 -52.890707 6.208996 -10.171966 82.197027 1.326227 -8.440025 6.430557 -0.171486 0.013735 -0.723145 -0.101763 -13.327098 -49.522421 17.737740 -171.025188 87.240777 -176.508068 1.003139 -7.916674 1.366392 -0.001121 0.036968 0.018116
-54.358970 48.789657 35.576306 171.563737 -35.571704 -5.422210 6.007067 18.448822 4.822865 0.645729 2.265138 0.480615 1.064983 3.714655 0.801270 5.053704 15.953397 4.065242 -0.743901 17.496954 3.109824 -2.420351 -3.261940 5.959372 0.585160 0.535395 -4.428212 6.221448 -2.596689 -0.204495 89.021723 -76.490699 -97.628162 1.031781 0.857398 -10.840227 -8.542012 0.743690 -1.438941 1.765053 0.497192 -0.278053 -123.485978 -76.413124 121.651083 12.786908 -9.865645 4.947355 10.991555 -52.657484 6.334428 -10.131295 82.439739 1.309858 -8.515768 6.137699 -0.068678 0.012979 -0.702015 -0.142272 -13.212185 -49.487931 17.763260 -170.567213 87.263591 -176.055910 0.944887 -7.907223 1.436146 -0.002506 0.036125 0.018296
-54.361806 48.797917 35.590077 171.546946 -35.583319 -5.423075 6.020019 18.466652 4.835566 0.647208 2.270430 0.482227 1.061521 3.759531 0.816897 5.059965 15.929028 4.056005 -0.751845 17.521511 3.114377 -2.432432 -3.278035 5.944535 0.592046 0.542808 -4.415117 6.212515 -2.600101 -0.260614 89.181607 -76.463037 -97.835880 1.022271 0.885272 -10.771185 -8.549513 0.719203 -1.448369 1.650048 0.478452 -0.207991 -123.325380 -76.450120 121.577821 12.759799 -9.903255 5.022743 10.860528 -52.431785 6.426526 -10.117970 82.670847 1.259970 -8.548671 5.866735 0.029414 0.012816 -0.696281 -0.171411 -13.157296 -49.469137 17.773159 -170.302279 87.292325 -175.798535 0.920544 -7.894841 1.463157 0.003813 0.031543 0.015453
-54.365490 48.806722 35.603853 171.540681 -35.587552 -5.424823 6.021508 18.477714 4.841913 0.643143 2.285831 0.487176 1.068206 3.754519 0.815063 5.066301 16.016249 4.101356 -0.768051 17.471200 3.081891 -2.431296 -3.318803 5.927355 0.597108 0.467319 -4.446848 6.195087 -2.580162 -0.288635 89.354019 -76.448935 -98.035949 1.021595 0.892745 -10.721245 -8.560644 0.645466 -1.481677 1.587416 0.435051 -0.157325 -123.149243 -76.462951 121.447570 12.781410 -9.929778 5.057362 10.728219 -52.205827 6.496138 -10.165030 82.888379 1.149924 -8.526136 5.626134 0.131075 0.013261 -0.707264 -0.196257 -13.109877 -49.457808 17.775376 -169.976561 87.322490 -175.478886 0.902580 -7.881334 1.484202 0.002667 0.032603 0.022746
-54.367181 48.817886 35.615562 171.511027 -35.605821 -5.422851 6.020523 18.514297 4.856793 0.650770 2.293470 0.488661 1.079832 3.757668 0.814586 5.073092 16.030309 4.108684 -0.772935 17.468037 3.074721 -2.454551 -3.242782 5.938584 0.602214 0.434319 -4.462346 6.178408 -2.569215 -0.282088 89.390572 -76.436640 -98.090537 1.047384 0.932016 -10.646566 -8.565371 0.630697 -1.491257 1.552396 0.403768 -0.120299 -122.989484 -76.459877 121.308836 12.751074 -9.893409 5.029669 10.610138 -51.965838 6.568648 -10.304533 83.087755 0.953751 -8.458838 5.423995 0.241337 0.013279 -0.734305 -0.223570 -13.049622 -49.426464 17.791740 -169.554015 87.350787 -175.064970 0.885067 -7.880991 1.496950 -0.002499 0.042279 0.043225
-54.370192 48.828941 35.627378 171.485682 -35.614461 -5.415714 6.027859 18.536994 4.865980 0.659879 2.287263 0.486257 1.074655 3.775913 0.820973 5.079229 16.040202 4.112806 -0.776859 17.478747 3.072293 -2.464925 -3.205129 5.939529 0.604076 0.439354 -4.458329 6.153954 -2.588634 -0.288943 89.432945 -76.423894 -98.133487 1.063034 0.965916 -10.589730 -8.573196 0.622851 -1.500661 1.539467 0.379907 -0.081764 -122.889240 -76.455468 121.220125 12.709145 -9.806865 4.952915 10.512642 -51.734342 6.606951 -10.502269 83.275148 0.706557 -8.366509 5.257545 0.364763 0.013302 -0.773085 -0.256076 -12.999492 -49.407079 17.805082 -169.191802 87.379124 -174.718493 0.864590 -7.865392 1.530477 -0.002885 0.035359 0.036353
-54.372664 48.839886 35.639417 171.460685 -35.614472 -5.412518 6.030533 18.556813 4.878207 0.658355 2.296187 0.489276 1.085575 3.772373 0.819325 5.083495 16.045720 4.112251 -0.780464 17.501302 3.074613 -2.467869 -3.196910 5.931642 0.602000 0.448082 -4.452631 6.123926 -2.605834 -0.287484 89.527358 -76.402368 -98.202232 1.066827 0.973947 -10.574828 -8.580176 0.625359 -1.499452 1.544028 0.351226 -0.072213 -122.769076 -76.437710 121.098376 12.677396 -9.697324 4.849819 10.421367 -51.512309 6.635003 -10.714143 83.447469 0.450682 -8.263051 5.122834 0.502078 0.013151 -0.816390 -0.294509 -12.975781 -49.392464 17.821425 -168.970797 87.407071 -174.502769 0.855211 -7.859314 1.530056 -0.004143 0.032131 0.033470
-54.375648 48.849559 35.652485 171.395532 -35.599922 -5.384483 6.066101 18.555020 4.886297 0.668385 2.289332 0.486509 1.068996 3.802872 0.828721 5.099431 16.033518 4.103225 -0.784025 17.511226 3.071297 -2.465560 -3.204222 5.926626 0.573567 0.491305 -4.445883 6.111299 -2.653692 -0.280352 89.535150 -76.398554 -98.206941 1.082474 0.984710 -10.526019 -8.579851 0.627629 -1.495204 1.547804 0.329381 -0.062855 -122.710266 -76.429905 121.036721 12.633505 -9.560687 4.726126 10.369233 -51.311037 6.648355 -10.928291 83.604909 0.192092 -8.151569 5.008991 0.650829 0.012883 -0.850946 -0.335095 -12.898989 -49.395358 17.834096 -168.462889 87.436209 -173.994379 0.845316 -7.862675 1.521462 -0.001444 0.041702 0.058850
-54.378979 48.860440 35.662380 171.361961 -35.594025 -5.370733 6.076699 18.562974 4.892254 0.670199 2.293324 0.486007 1.081350 3.789269 0.823310 5.099262 16.051968 4.111217 -0.789424 17.520056 3.064907 -2.476490 -3.174241 5.917549 0.554732 0.500579 -4.451945 6.091294 -2.661869 -0.249036 89.370396 -76.405038 -98.087356 1.101898 0.945706 -10.438797 -8.581813 0.657542 -1.464600 1.596880 0.316386 -0.021699 -123.034527 -76.468549 121.324128 12.572111 -9.409507 4.596608 10.298245 -51.092957 6.655667 -11.169657 83.750934 -0.090345 -8.044389 4.890602 0.794054 0.012974 -0.869664 -0.366126 -12.816867 -49.391731 17.836626 -167.518641 87.460155 -173.055190 0.836389 -7.861336 1.551797 -0.002025 0.043781 0.060001
